<svg xmlns="http://www.w3.org/2000/svg" viewBox="0 0 32 32" width="32" height="32">
  <defs>
    <linearGradient id="phoneGradient" x1="0%" y1="0%" x2="0%" y2="100%">
      <stop offset="0%" style="stop-color:#4a90e2;stop-opacity:1" />
      <stop offset="100%" style="stop-color:#2c5aa0;stop-opacity:1" />
    </linearGradient>
  </defs>
  
  <!-- Background circle -->
  <circle cx="16" cy="16" r="15" fill="url(#phoneGradient)" stroke="#1a3a6e" stroke-width="1"/>
  
  <!-- Phone handset -->
  <path d="M 10 8 C 9.5 8 9 8.5 9 9 L 9 11 C 9 11.5 9.5 12 10 12 L 11 12 L 11 20 L 10 20 C 9.5 20 9 20.5 9 21 L 9 23 C 9 23.5 9.5 24 10 24 L 14 24 C 14.5 24 15 23.5 15 23 L 15 9 C 15 8.5 14.5 8 14 8 Z" 
        fill="#ffffff" opacity="0.95"/>
  
  <!-- Database/List lines -->
  <line x1="18" y1="10" x2="24" y2="10" stroke="#ffffff" stroke-width="1.5" stroke-linecap="round" opacity="0.95"/>
  <line x1="18" y1="14" x2="24" y2="14" stroke="#ffffff" stroke-width="1.5" stroke-linecap="round" opacity="0.95"/>
  <line x1="18" y1="18" x2="24" y2="18" stroke="#ffffff" stroke-width="1.5" stroke-linecap="round" opacity="0.95"/>
  <line x1="18" y1="22" x2="24" y2="22" stroke="#ffffff" stroke-width="1.5" stroke-linecap="round" opacity="0.95"/>
  
  <!-- Checkmark accent -->
  <path d="M 17 21 L 18.5 22.5 L 21 19" stroke="#7bed9f" stroke-width="1.2" fill="none" stroke-linecap="round" stroke-linejoin="round"/>
</svg>
